<?xml version="1.0" encoding="UTF-8"?><svg id="Ebene_1" xmlns="http://www.w3.org/2000/svg" viewBox="0 0 110.85 110.85"><defs><style>.cls-1{fill:#fd0;}.cls-2{fill:#fff;}.cls-3{fill:none;}</style></defs><path class="cls-3" d="M109.72,1.14c-.41-.41-.95-.63-1.52-.64,0,0,0,0-.01,0H2.67c-.58,0-1.12.23-1.53.64-.41.41-.64.95-.64,1.53v105.52c0,1.19.97,2.16,2.16,2.17,0,0,0,0,.01,0h105.52c.58,0,1.12-.23,1.53-.64.41-.41.64-.95.64-1.53V2.67c0-.58-.23-1.12-.64-1.53ZM95.45,95.39l-12.76,12.76h-5.39l15.45-15.45-35.98-35.99-16.09,16.09,35.34,35.35h-5.39s-32.66-32.65-32.66-32.65l-15.69,15.69c5.62,5.63,11.28,11.29,16.95,16.95h-5.39c-4.77-4.76-9.53-9.52-14.25-14.26l-14.26,14.26h-2.66v-2.73l14.22-14.23c-4.78-4.79-9.51-9.55-14.22-14.29v-5.41c5.59,5.63,11.24,11.31,16.92,17.01l15.69-15.69L2.69,40.2v-5.39s35.31,35.3,35.31,35.3l16.09-16.08L18.45,18.39l-15.76,15.77v-5.39l13.07-13.07L2.76,2.69h73.65s0-.01,0-.02c0,0,25.11,0,28.55,0,2.53,0,3.17.85,3.17,3.25v.93l.03.03v101.21s-12.71-12.7-12.71-12.7Z"/><path class="cls-1" d="M110.85,2.67c0-.71-.28-1.38-.78-1.88C109.57.28,108.9,0,108.2,0c0,0,0,0-.01,0H2.67c-.71,0-1.38.28-1.88.78C.28,1.29,0,1.96,0,2.67v105.52c0,1.47,1.19,2.66,2.65,2.67,0,0,0,0,.01,0h105.52c.71,0,1.38-.28,1.88-.78.5-.51.78-1.17.78-1.88V2.67ZM109.72,109.71c-.41.41-.95.64-1.53.64H2.67s0,0-.01,0c-1.19,0-2.16-.98-2.16-2.17V2.67c0-.58.23-1.12.64-1.53.41-.41.95-.64,1.53-.64h105.52s0,0,.01,0c.57,0,1.11.23,1.52.64.41.41.64.95.64,1.53v105.52c0,.58-.22,1.12-.64,1.53Z"/><path class="cls-2" d="M108.13,6.85c0,4.99,0,27.22,0,27.22-1,.11-2.02.18-3.06.18-15.91,0-28.81-12.91-28.81-28.81,0-.93.06-1.85.14-2.76H2.76s13,13.01,13,13.01L2.69,28.77v5.39l15.76-15.77,35.64,35.64-16.09,16.08L2.69,34.81v5.39s32.61,32.61,32.61,32.61l-15.69,15.69c-5.68-5.7-11.32-11.37-16.92-17.01v5.41c4.71,4.75,9.45,9.51,14.22,14.29l-14.22,14.23v2.73h2.66l14.26-14.26c4.73,4.73,9.49,9.49,14.25,14.26h5.39c-5.68-5.67-11.33-11.33-16.95-16.95l15.69-15.69,32.66,32.65h5.39s-35.34-35.35-35.34-35.35l16.09-16.09,35.98,35.99-15.45,15.45h5.39l12.76-12.76,12.71,12.7V6.89s-.04-.03-.04-.03ZM37.05,7.02c0-.93.75-1.68,1.68-1.68h32.55c.93,0,1.68.75,1.68,1.68s-.75,1.68-1.68,1.68h-32.55c-.93,0-1.68-.75-1.68-1.68ZM44.37,32.74c-.86.35-1.84-.05-2.19-.91-.36-.85.05-1.83.91-2.19l30.07-12.46c.86-.36,1.84.05,2.19.91.36.86-.05,1.84-.91,2.19l-30.07,12.46ZM57.16,53.4c-.65-.66-.65-1.72,0-2.37l23.01-23.02c.65-.66,1.72-.66,2.37,0,.66.66.66,1.72,0,2.37l-23.01,23.02c-.66.65-1.72.65-2.38,0ZM93.06,37.07l-12.45,30.07c-.36.86-1.34,1.26-2.2.91-.86-.36-1.26-1.34-.91-2.2l12.46-30.06c.35-.86,1.34-1.27,2.19-.91.86.35,1.26,1.34.91,2.19ZM103.51,73.56c-.93,0-1.68-.75-1.68-1.68v-32.55c0-.93.75-1.68,1.68-1.68s1.68.75,1.68,1.68v32.55c0,.93-.75,1.68-1.68,1.68Z"/><path class="cls-1" d="M92.15,34.87c-.86-.35-1.84.05-2.19.91l-12.46,30.06c-.35.86.05,1.84.91,2.2.86.35,1.84-.05,2.2-.91l12.45-30.07c.36-.86-.05-1.84-.91-2.19Z"/><path class="cls-1" d="M75.35,18.08c-.35-.86-1.34-1.26-2.19-.91l-30.07,12.46c-.86.36-1.26,1.34-.91,2.19.35.86,1.34,1.27,2.19.91l30.07-12.46c.86-.35,1.26-1.34.91-2.19Z"/><path class="cls-1" d="M103.51,37.65c-.93,0-1.68.75-1.68,1.68v32.55c0,.93.75,1.68,1.68,1.68s1.68-.75,1.68-1.68v-32.55c0-.93-.75-1.68-1.68-1.68Z"/><path class="cls-1" d="M72.95,7.02c0-.93-.75-1.68-1.68-1.68h-32.55c-.93,0-1.68.75-1.68,1.68s.75,1.68,1.68,1.68h32.55c.93,0,1.68-.75,1.68-1.68Z"/><path class="cls-1" d="M82.55,28c-.65-.66-1.72-.66-2.37,0l-23.01,23.02c-.65.65-.65,1.71,0,2.37.66.65,1.72.65,2.38,0l23.01-23.02c.66-.66.66-1.72,0-2.37Z"/><path class="cls-1" d="M105.07,34.26c1.04,0,2.05-.07,3.06-.18,0,0,0-22.24,0-27.22v-.93c0-2.4-.64-3.25-3.17-3.25-3.44,0-28.55,0-28.55,0,0,0,0,.01,0,.02-.08.91-.14,1.82-.14,2.76,0,15.91,12.9,28.81,28.81,28.81Z"/></svg>